<?xml version="1.0" standalone="no"?>
<!DOCTYPE svg PUBLIC "-//W3C//DTD SVG 20010904//EN"
 "http://www.w3.org/TR/2001/REC-SVG-20010904/DTD/svg10.dtd">
<svg version="1.0" xmlns="http://www.w3.org/2000/svg"
 width="138.000000pt" height="70.000000pt" viewBox="0 0 138.000000 70.000000"
 preserveAspectRatio="xMidYMid meet">

<g transform="translate(0.000000,70.000000) scale(0.100000,-0.100000)"
fill="#000000" stroke="none">
<path d="M0 692 c0 -5 11 -19 25 -32 l25 -23 0 -319 0 -318 640 0 640 0 0 322
0 322 27 28 27 28 -692 0 c-381 0 -692 -4 -692 -8z m705 -92 c10 -11 23 -20
29 -20 6 0 20 -7 30 -15 18 -13 11 -15 -67 -14 -60 1 -90 6 -98 15 -6 8 -18
14 -25 14 -8 0 -14 5 -14 10 0 6 15 10 34 10 19 0 38 5 41 10 10 17 51 11 70
-10z m146 0 l24 -19 -47 -1 c-49 0 -61 11 -30 29 24 14 27 14 53 -9z m-458
-18 c-20 -21 -28 -20 -20 3 4 8 13 15 22 15 13 0 12 -3 -2 -18z m592 -12 l20
-9 -20 0 c-11 0 -27 4 -35 9 -13 9 -13 10 0 9 8 0 24 -4 35 -9z m-542 -50
c-12 -10 -24 -16 -27 -12 -4 3 3 14 16 23 29 23 38 15 11 -11z m506 -4 c-11
-9 -69 -14 -69 -6 0 6 17 10 37 10 20 0 34 -2 32 -4z m-464 -36 c-10 -11 -23
-20 -28 -20 -6 0 0 11 13 25 27 29 42 25 15 -5z m265 6 c0 -2 -9 -6 -20 -9
-11 -3 -20 -1 -20 4 0 5 9 9 20 9 11 0 20 -2 20 -4z m145 -17 c11 -17 -1 -21
-15 -4 -8 9 -8 15 -2 15 6 0 14 -5 17 -11z m-364 -43 c-6 -14 -15 -26 -20 -26
-5 0 -3 14 6 31 18 36 28 33 14 -5z m334 -4 c-11 -3 -14 -10 -10 -20 5 -13 1
-12 -17 3 -13 11 -25 22 -28 24 -3 2 5 0 17 -3 19 -6 22 -4 16 9 -5 15 -3 15
16 3 18 -11 19 -14 6 -16z m-45 -42 c14 -11 21 -20 17 -20 -5 0 -20 9 -34 20
-14 11 -22 20 -17 20 5 0 20 -9 34 -20z m-245 -10 c-10 -11 -20 -18 -23 -15
-7 6 18 35 31 35 5 0 2 -9 -8 -20z m39 -34 c-3 -9 -13 -16 -22 -16 -13 0 -12
3 3 20 20 23 29 21 19 -4z m162 -5 c14 -11 21 -22 16 -25 -5 -3 -20 6 -32 19
-28 30 -18 33 16 6z m-133 -12 c-6 -6 -9 -19 -6 -28 4 -14 3 -14 -7 -1 -9 11
-13 12 -17 2 -2 -6 -9 -10 -14 -6 -5 3 1 14 13 24 25 21 50 28 31 9z m123 -21
c4 -6 3 -8 -4 -4 -6 3 -13 2 -17 -4 -3 -5 -14 -10 -23 -10 -13 0 -13 2 4 15
23 18 31 18 40 3z m-297 -131 l24 -27 -71 0 -72 0 0 79 0 80 48 -52 c26 -29
58 -64 71 -80z m548 16 c-3 -2 -27 -3 -53 -1 l-49 3 50 54 50 54 3 -53 c2 -29
1 -54 -1 -57z m3 -28 c0 -12 -15 -15 -71 -15 -62 0 -70 2 -59 15 8 10 31 15
71 15 46 0 59 -3 59 -15z"/>
</g>
</svg>
